<?xml version="1.0" standalone="no"?>
<!DOCTYPE svg PUBLIC "-//W3C//DTD SVG 20010904//EN"
 "http://www.w3.org/TR/2001/REC-SVG-20010904/DTD/svg10.dtd">
<svg version="1.0" xmlns="http://www.w3.org/2000/svg"
 width="512.000000pt" height="512.000000pt" viewBox="0 0 512.000000 512.000000"
 preserveAspectRatio="xMidYMid meet">
<metadata>
Created by potrace 1.16, written by Peter Selinger 2001-2019
</metadata>
<g transform="translate(0.000000,512.000000) scale(0.100000,-0.100000)"
fill="#000000" stroke="none">
<path d="M4104 4890 c-189 -49 -335 -171 -416 -347 l-28 -63 -1206 0 c-1168 0
-1209 -1 -1304 -20 -460 -94 -798 -383 -908 -778 -24 -88 -27 -113 -26 -267 0
-186 9 -241 65 -386 105 -273 387 -519 715 -622 205 -65 100 -60 1544 -67
l1315 -5 80 -23 c44 -13 127 -46 185 -74 90 -43 117 -63 186 -132 122 -122
164 -224 164 -396 0 -53 -7 -121 -15 -153 -57 -219 -236 -373 -535 -459 -75
-22 -77 -22 -1270 -25 l-1196 -4 -13 38 c-23 64 -77 145 -137 206 -286 289
-793 230 -1002 -116 -83 -137 -113 -330 -78 -491 67 -297 319 -495 632 -496
251 0 472 141 576 367 l28 63 1199 0 c1326 0 1277 -2 1478 65 309 103 544 296
672 553 118 235 134 548 41 805 -106 292 -386 543 -726 650 -204 65 -100 60
-1544 67 l-1315 6 -80 23 c-134 37 -275 112 -354 187 -86 81 -126 142 -157
239 -29 90 -33 237 -9 328 57 220 246 381 537 459 l83 22 1190 3 1191 4 13
-38 c37 -105 146 -234 250 -297 254 -155 604 -112 805 99 110 114 166 249 174
416 6 133 -13 228 -70 342 -129 256 -445 393 -734 317z m287 -454 c49 -33 79
-97 79 -169 0 -67 -12 -102 -48 -141 -76 -81 -220 -88 -301 -13 -58 54 -78
165 -42 242 24 53 81 102 128 110 21 4 42 8 48 9 24 6 102 -16 136 -38z
m-3453 -3391 c49 -21 81 -52 103 -100 37 -80 16 -188 -47 -247 -86 -80 -248
-62 -311 34 -49 73 -44 193 10 255 60 68 162 92 245 58z"/>
</g>
</svg>
